# xmcd
#
# Track frame offsets: 
#        150
#        11251
#        26347
#        39494
#        51867
#        64551
#        77888
#        93227
#        104146
#        117542
#        130193
#        145599
#        158916
#        170086
#        181979
#
# Disc length: 2656 seconds
#
# Revision: 0
# Processed by: cddbd v1.5.2PL0 Copyright (c) Steve Scherf et al.
# Submitted via: ExactAudioCopy v1.0b3
#
DISCID=c30a5e0f
DTITLE=Kapa Ahonen - Markan Varrelta
DYEAR=1900
DGENRE=
TTITLE0=Tiikerikakku
TTITLE1=Kaunis suvip‰iv‰ maalla
TTITLE2=En selvi‰ p‰iv‰‰k‰‰n (sua ilman)
TTITLE3=Isken buutsit parkettiin
TTITLE4=Min‰ l‰hden huitsin nevadaan
TTITLE5=T‰hdet
TTITLE6=Takaisin (rakkaansa luo)
TTITLE7=Vanha kantrilaulu
TTITLE8=Elvistell‰‰n
TTITLE9=Rakkauden konkurssi
TTITLE10=Onko musta mihink‰‰n
TTITLE11=Vain yhden kerran el‰m‰ss‰
TTITLE12=Kapakkilaulu
TTITLE13=Uni on kuoleman veli
TTITLE14=Tomi
EXTD=
EXTT0=
EXTT1=
EXTT2=
EXTT3=
EXTT4=
EXTT5=
EXTT6=
EXTT7=
EXTT8=
EXTT9=
EXTT10=
EXTT11=
EXTT12=
EXTT13=
EXTT14=
PLAYORDER=
